<svg xmlns="http://www.w3.org/2000/svg" viewBox="0 0 512 512">
  <rect width="512" height="512" fill="#0d0d0b" rx="80"/>
  <g transform="translate(256,256) scale(9)">
    <path d="M-22 16 C-22 16 -24 6 -16 0 C-16 0 -17 10 -12 10 C-12 10 -13 4 -8 0 C-8 0 -8 9 -4 8 C-4 8 -6 1 0 -5 C0 -5 6 1 4 8 C4 8 8 9 8 0 C8 0 13 4 12 10 C12 10 17 10 16 0 C16 0 24 6 22 16 Z" fill="#b8000c" opacity="0.85"/>
    <ellipse cx="0" cy="-4" rx="18" ry="18" fill="#110808" stroke="#b8000c" stroke-width="1.5"/>
    <ellipse cx="-6" cy="-5" rx="4" ry="4.5" fill="#b8000c" opacity="0.9"/>
    <ellipse cx="6" cy="-5" rx="4" ry="4.5" fill="#b8000c" opacity="0.9"/>
    <ellipse cx="-6" cy="-4" rx="2" ry="2.2" fill="#060303"/>
    <ellipse cx="6" cy="-4" rx="2" ry="2.2" fill="#060303"/>
    <path d="M-2 1 L0 4 L2 1" stroke="#b8000c" stroke-width="0.8" stroke-linecap="round" fill="none" opacity="0.7"/>
    <path d="M-7 8 L7 8" stroke="#b8000c" stroke-width="0.8" opacity="0.5"/>
    <line x1="-4" y1="8" x2="-4" y2="11" stroke="#b8000c" stroke-width="0.8" opacity="0.5"/>
    <line x1="0" y1="8" x2="0" y2="12" stroke="#b8000c" stroke-width="0.8" opacity="0.5"/>
    <line x1="4" y1="8" x2="4" y2="11" stroke="#b8000c" stroke-width="0.8" opacity="0.5"/>
    <path d="M-18 -8 C-20 -16 -16 -22 -12 -20 C-16 -18 -16 -10 -14 -8" fill="#b8000c" opacity="0.8"/>
    <path d="M18 -8 C20 -16 16 -22 12 -20 C16 -18 16 -10 14 -8" fill="#b8000c" opacity="0.8"/>
  </g>
</svg>
